PathFileType	4	(X/Y/Z)	Patient4_TMGait_0pt2_01_right_09.trc.trc
DataRate	CameraRate	NumFrames	NumMarkers	Units	OrigDataRate	OrigDataStartFrame	OrigNumFrames
40.579710144928	40.579710144928	4	33	mm	40.579710144928	1	       141
Frame#	Time	Sacral			L.Shoulder			Chest			R.Shoulder			Neck			R.ASIS			L.ASIS			R.Thigh.Superior			R.Thigh.Lateral			R.Thigh.Inferior			R.Patella			L.Thigh.Superior			L.Thigh.Lateral			L.Thigh.Inferior			L.Patella			L.Shank.Superior			L.Shank.Lateral			L.Shank.Inferior			R.Shank.Superior			R.Shank.Lateral			R.Shank.Inferior			R.Heel			R.Midfoot.Superior			R.Midfoot.Lateral			R.Toe			L.Heel			L.Midfoot.Lateral			L.Midfoot.Superior			L.Toe			L.Elbow			L.Wrist			R.Elbow			R.Wrist			
		X1	Y1	Z1	X2	Y2	Z2	X3	Y3	Z3	X4	Y4	Z4	X5	Y5	Z5	X6	Y6	Z6	X7	Y7	Z7	X8	Y8	Z8	X9	Y9	Z9	X10	Y10	Z10	X11	Y11	Z11	X12	Y12	Z12	X13	Y13	Z13	X14	Y14	Z14	X15	Y15	Z15	X16	Y16	Z16	X17	Y17	Z17	X18	Y18	Z18	X19	Y19	Z19	X20	Y20	Z20	X21	Y21	Z21	X22	Y22	Z22	X23	Y23	Z23	X24	Y24	Z24	X25	Y25	Z25	X26	Y26	Z26	X27	Y27	Z27	X28	Y28	Z28	X29	Y29	Z29	X30	Y30	Z30	X31	Y31	Z31	X32	Y32	Z32	X33	Y33	Z33	

1	18.620000000000	839.021502755566	998.445635774220	448.110943648227	988.198841047776	1432.120217022486	270.082475260564	1109.669594381563	1357.878063829323	415.386522062673	1047.349558932712	1420.445280352614	600.840272866733	988.556926288347	1487.110268519877	430.791118474390	1075.064786432696	925.243202775503	545.481187652763	1041.853684122664	957.627462468988	275.832993164969	1073.906021909488	712.324486659040	527.874777378080	973.104804229841	620.288742251007	598.019017374793	1035.938381691838	548.672273680480	522.698558697501	1013.475405736365	450.674794466675	541.617015160679	1110.515272695377	756.880293986790	323.238626760489	1043.490284913287	623.186413948062	265.921135682759	1134.037950799706	559.460198742279	337.057479406193	1141.787899574910	484.165605203097	347.026904512847	1105.718945246408	408.993094424863	342.667546698298	1009.042567355769	301.469855280768	291.264058250854	1043.106369883367	189.036877550520	366.264335177677	944.146574112708	382.936425107849	554.282444938797	833.947717840421	327.008382102246	622.380085398720	831.369214122435	217.111975333620	571.176805897843	638.648647017002	107.746990497372	553.205370221611	816.384937106003	103.506146585655	586.034775597047	715.298484805735	71.032531751294	625.038759897606	913.426938567292	35.832215914548	612.417578176698	899.598422628771	40.924514111945	403.459589906540	975.524241756300	37.817798024315	325.395241477342	1059.885198756912	97.064041305336	354.448284529323	1187.323865465224	40.635818287494	327.044727396087	973.415102988616	1087.955475576704	129.027263363471	1059.066139178406	837.961166451562	132.791068465913	1171.284062070380	1084.355634258214	695.139875985603	1405.611841800842	967.856027729593	666.505731336982	
2	18.644642857143	837.446390257955	996.919943563403	443.429988243017	989.246069214994	1431.197153715645	267.642054836231	1108.469409525231	1356.715089441720	414.583229571984	1043.597755322098	1418.962351545594	599.316255849722	987.487740355812	1486.051227798841	428.515516814574	1072.735838461388	924.474066404096	543.203862842607	1041.846812731613	956.772855660224	273.122675811258	1078.481646358669	713.049309312864	525.298320937625	981.536916893951	618.538940156726	595.733154965546	1047.245067509415	548.367568609399	520.858760531739	1026.840598607613	448.582473378599	541.257520821645	1110.051939649344	755.543247413770	320.636932228879	1042.622113278683	622.018801532996	263.779165590519	1132.405038746378	558.184744612462	335.828954251001	1139.969238074220	482.973120303772	346.189287437810	1103.397145696514	407.783486691329	341.830278671604	1006.278648042376	300.636540035427	290.296229520803	1039.059661989227	188.315099328371	365.911119577129	955.232609335209	381.771868953480	553.679332780366	842.885603699022	330.679417836260	621.351618152241	836.575945987357	220.804885274293	571.327264003094	640.717188710565	121.430759287340	553.447142449681	816.969807043026	106.611607553974	587.330317401387	714.280976026647	79.973232956609	625.079462480105	907.810365687043	35.079770418905	612.345082773730	894.735557083607	40.756180103342	403.289442775129	970.683940407065	37.639843807461	325.205502449063	1055.017105822773	96.934401427802	354.380122179410	1182.535959876734	40.612022666889	327.069398666270	987.757000888494	1088.971166191854	123.569271936701	1089.878470142910	847.201310791880	128.264052126193	1148.062811331311	1077.061849733444	693.854187081615	1364.744157152168	938.069601813358	671.862789653931	
3	18.669285714286	835.646703486429	995.324885816594	438.701181518641	990.306036300550	1430.210635155868	265.189901849139	1107.145857576750	1355.510814211793	413.850044054407	1039.576379873487	1417.443129585513	597.789754124741	986.323858525558	1484.957296831083	426.203077836835	1070.251342321317	923.695162885166	540.893229539459	1041.704143380411	955.911837901757	270.387644557275	1083.512547489912	714.167888620195	522.497185703067	990.925173572353	617.002357292584	593.308797461079	1059.571932654991	548.494352506647	518.737796689737	1041.423409074261	446.805380777382	540.576612379159	1109.428152873972	754.119179999949	317.864674683602	1041.527332049525	620.809648350853	261.533912119931	1130.571542642365	556.861637843438	334.439354219539	1137.926954789871	481.756877965120	345.225759956563	1100.851707837925	406.534821682490	340.901586660285	1003.288765048673	299.760745363330	289.256901373474	1034.775038650365	187.566850943697	365.521117654728	967.435292457084	380.919743215271	552.792932709757	852.907219289842	335.010395867460	620.140787863214	842.525123172574	225.221713925751	571.305802649530	643.499144862040	136.767060630351	553.575594613908	817.889767281444	110.473495064897	588.432620560074	713.652999079882	90.312739929574	625.019983032258	902.005751744523	34.200092832557	612.243282869033	889.627142858344	40.576209258584	403.117424754983	965.596299941296	37.455395639498	325.002983458034	1049.899937529617	96.795471804585	354.301481766325	1177.503573753656	40.588955855429	327.088370272945	1002.741035625761	1090.248384851054	118.081166894749	1121.968824530848	857.658398377690	123.736780742236	1123.249063435137	1070.079550054221	692.586936622136	1320.551531730627	908.561835800737	677.101650544674	
4	18.693928571429	833.627662921333	993.754399223412	434.121601537641	991.356011563089	1429.232734074365	262.842283364130	1105.712054005152	1354.350919781074	413.266148874800	1035.347336773459	1415.994373153331	596.336599017407	985.080341387363	1483.908949452663	423.957880662492	1067.649690707463	922.990864717931	538.664653531751	1041.387829925038	955.117114678086	267.758087410278	1088.869598808837	715.818121300134	519.540832325329	1001.112273232700	615.887251052787	590.828065309183	1072.638673459203	549.262071222743	516.355305460692	1056.935749968589	445.609578280202	539.517847586890	1108.589680326756	752.660181605836	315.011323857716	1040.118316368508	619.626854301207	259.262196784437	1128.476351572415	555.544048761223	332.908520231968	1135.588187197678	480.580131934602	344.147246501344	1098.044102961018	405.313636186841	339.896426719129	1000.067579977820	298.879855615374	288.170839388764	1030.318972961029	186.830424488588	365.100355842369	980.568214179485	380.576138413572	551.595393983892	863.917812589948	339.989850746065	618.749235286354	849.281238837074	230.340615722635	571.066257143443	647.197954843802	153.297137024423	553.544740619855	819.412638872633	115.109731842377	589.248385312359	713.756459777254	101.829483860994	624.840084406692	896.555976258887	33.257017827735	612.136711972109	884.390331305348	40.388759906764	402.950825369097	960.378060225754	37.270826922948	324.793098706946	1044.650670063795	96.652725868952	354.211419331527	1172.341510925021	40.569984122248	327.099264059576	1017.930285431729	1091.883414975898	112.814514544929	1154.354295415206	869.435737581808	119.431979765259	1097.327171005990	1063.948287964692	691.400893592885	1273.787905522127	880.926716657712	681.918974604518	
